#!OML:ASF Y:\EmotionMaleHayes\Project 1\Capture day 1\Session 1\Male1.ASF
:FULLY-SPECIFIED
:DEGREES
1470
root 45.5557 17.3102 -11.4088 362.449 203.857 356.893
lowerback 8.07752 1.7348 -9.60084
upperback 6.5479 0.984302 -4.06943
thorax 2.20372 -0.100776 1.05227
lowerneck -22.5484 7.27776 8.31955
upperneck 27.183 10.038 -10.6291
head 14.0914 3.49868 -3.82305
rclavicle -8.54774e-014 -6.67916e-014
rhumerus 44.3265 14.2352 -25.4062
rradius 39.8445
rwrist -4.08856
rhand -6.15629 -31.8835
rfingers 7.12502
rthumb 19.6821 -60.9071
lclavicle -8.54774e-014 -6.67916e-014
lhumerus 37.1424 -8.87605 29.2862
lradius 38.8427
lwrist 6.0417
lhand -18.7713 -26.935
lfingers 7.12502
lthumb 7.52588 2.91108
rfemur -13.3088 0.897865 4.74249
rtibia 5.51138
rfoot -2.18713 3.78589
rtoes 13.621
lfemur 8.03173 -2.06831 -23.5885
ltibia 12.9692
lfoot -15.4334 9.46319
ltoes -19.5047
1471
root 45.5249 17.283 -11.5639 362.419 204.465 356.62
lowerback 7.82497 1.71909 -9.61796
upperback 6.51189 1.00167 -4.17092
thorax 2.30597 -0.0906358 0.957533
lowerneck -22.5096 7.32863 8.37743
upperneck 27.1311 10.1232 -10.7197
head 14.0821 3.5324 -3.85134
rclavicle 3.18055e-015 8.90555e-014
rhumerus 44.3213 14.1232 -25.4853
rradius 39.8648
rwrist -4.0394
rhand -6.22744 -31.945
rfingers 7.12502
rthumb 19.6137 -60.9756
lclavicle 3.18055e-015 8.90555e-014
lhumerus 37.1359 -9.02624 29.1324
lradius 38.9272
lwrist 6.21957
lhand -18.6774 -26.7584
lfingers 7.12502
lthumb 7.6165 3.08443
rfemur -13.5153 -0.393978 4.52594
rtibia 5.42904
rfoot -0.47851 4.63266
rtoes 12.6515
lfemur 8.87162 -2.23723 -23.7079
ltibia 12.7441
lfoot -15.7393 8.99973
ltoes -19.1836
1472
root 45.49 17.2528 -11.7224 362.382 205.067 356.253
lowerback 7.55069 1.73755 -9.70101
upperback 6.52616 1.06088 -4.27643
thorax 2.46985 -0.0688186 0.89183
lowerneck -22.5692 7.42615 8.55628
upperneck 27.1476 10.2807 -10.9741
head 14.1536 3.58093 -3.95494
rclavicle -3.18055e-014 -1.43125e-013
rhumerus 44.3333 13.9177 -25.6128
rradius 39.8176
rwrist -3.97417
rhand -6.24805 -31.8117
rfingers 7.12502
rthumb 19.5939 -60.8443
lclavicle -3.18055e-014 -1.43125e-013
lhumerus 37.023 -9.08642 29.1846
lradius 38.9803
lwrist 6.0304
lhand -18.6913 -26.6857
lfingers 7.12502
lthumb 7.60313 3.15759
rfemur -13.6401 -1.83481 4.22078
rtibia 5.66812
rfoot 1.22766 5.33876
rtoes 13.3446
lfemur 9.41 -2.49964 -23.9832
ltibia 13.292
lfoot -16.4972 8.70823
ltoes -19.3377
1473
root 45.4583 17.2226 -11.8842 362.297 205.694 355.98
lowerback 7.26434 1.74513 -9.74498
upperback 6.54098 1.11594 -4.32557
thorax 2.64112 -0.046548 0.864426
lowerneck -22.5732 7.48132 8.60321
upperneck 27.1058 10.3917 -11.1187
head 14.1654 3.61495 -3.99836
rclavicle 2.82274e-014 8.74653e-014
rhumerus 44.3668 13.7408 -25.7222
rradius 39.8226
rwrist -3.94941
rhand -6.19969 -31.6249
rfingers 7.12502
rthumb 19.6404 -60.6528
lclavicle 2.82274e-014 8.74653e-014
lhumerus 36.913 -9.07072 29.4525
lradius 38.8497
lwrist 5.5741
lhand -18.7119 -26.7659
lfingers 7.12502
lthumb 7.58323 3.07819
rfemur -13.631 -2.51083 3.96499
rtibia 5.98299
rfoot 2.35621 5.2629
rtoes 15.3756
lfemur 10.3131 -2.9611 -24.2077
ltibia 13.1187
lfoot -16.845 8.67211
ltoes -19.5279
1474
root 45.4353 17.1905 -12.0426 362.044 206.458 355.967
lowerback 7.16985 1.75471 -9.55717
upperback 6.51252 1.16447 -4.32516
thorax 2.66119 -0.00885597 0.761261
lowerneck -22.5172 7.46494 8.59255
upperneck 27.1133 10.3706 -11.087
head 14.1506 3.61188 -3.98857
rclavicle 3.65764e-014 3.65764e-014
rhumerus 44.2363 13.6738 -25.7838
rradius 39.8731
rwrist -3.85306
rhand -6.37152 -31.937
rfingers 7.12502
rthumb 19.4752 -60.9816
lclavicle 3.65764e-014 3.65764e-014
lhumerus 36.911 -9.3289 29.3886
lradius 38.9027
lwrist 5.61633
lhand -18.6525 -26.6861
lfingers 7.12502
lthumb 7.64058 3.15589
rfemur -13.4025 -2.23109 3.98358
rtibia 6.2601
rfoot 2.80791 4.34416
rtoes 17.0073
lfemur 11.1266 -3.99301 -24.366
ltibia 13.3204
lfoot -17.3891 9.06927
ltoes -19.1038
1475
root 45.4255 17.1567 -12.1978 361.741 207.39 355.822
lowerback 7.35685 1.74946 -9.6528
upperback 6.47253 1.13319 -4.26818
thorax 2.51632 -0.0186341 0.873221
lowerneck -22.9957 7.68092 9.21597
upperneck 27.515 10.5885 -11.4979
head 14.533 3.68721 -4.23278
rclavicle 4.13472e-014 3.33958e-014
rhumerus 44.1478 13.6807 -25.7081
rradius 39.9202
rwrist -3.82187
rhand -6.60958 -32.1044
rfingers 7.12502
rthumb 19.2463 -61.1721
lclavicle 4.13472e-014 3.33958e-014
lhumerus 36.7595 -9.62806 29.2375
lradius 39.0974
lwrist 5.83712
lhand -18.5349 -26.5092
lfingers 7.12502
lthumb 7.75412 3.32866
rfemur -13.0018 -2.19229 3.96885
rtibia 6.71196
rfoot 3.25382 3.5928
rtoes 18.2032
lfemur 11.8635 -4.39577 -24.2892
ltibia 13.8128
lfoot -17.9236 8.60027
ltoes -18.5718
1476
root 45.3892 17.1202 -12.3678 361.35 208.006 355.809
lowerback 7.21549 1.74014 -9.45865
upperback 6.48902 1.1651 -4.2264
thorax 2.6107 0.00535674 0.810625
lowerneck -22.7056 7.64456 8.93329
upperneck 27.3196 10.6134 -11.3868
head 14.36 3.69765 -4.1278
rclavicle -4.77083e-014 1.59028e-014
rhumerus 44.2833 13.6827 -25.8118
rradius 39.8565
rwrist -3.72628
rhand -6.71943 -31.9871
rfingers 7.12502
rthumb 19.1406 -61.0652
lclavicle -4.77083e-014 1.59028e-014
lhumerus 36.4758 -9.71105 29.1449
lradius 39.1897
lwrist 5.65467
lhand -18.2261 -26.1255
lfingers 7.12502
lthumb 8.05208 3.70115
rfemur -12.6694 -2.43843 4.01222
rtibia 7.43496
rfoot 3.83241 3.73225
rtoes 19.1377
lfemur 12.5707 -4.35382 -24.0082
ltibia 14.5372
lfoot -18.6931 7.96343
ltoes -18.3655
1477
root 45.3505 17.0838 -12.5405 360.935 208.616 355.738
lowerback 7.10226 1.7423 -9.29438
upperback 6.51316 1.20291 -4.20471
thorax 2.69734 0.030071 0.742675
lowerneck -22.6355 7.68208 8.86803
upperneck 27.2711 10.6867 -11.3457
head 14.3257 3.73233 -4.08272
rclavicle -4.96962e-014 -3.18055e-015
rhumerus 44.4602 13.5677 -26.2572
rradius 39.5582
rwrist -3.36444
rhand -6.70964 -31.9564
rfingers 7.12502
rthumb 19.1501 -61.0336
lclavicle -4.96962e-014 -3.18055e-015
lhumerus 36.2404 -9.72157 29.0557
lradius 39.2123
lwrist 5.21831
lhand -17.8181 -25.9274
lfingers 7.12502
lthumb 8.44585 3.88368
rfemur -12.2104 -2.0554 4.00268
rtibia 8.29549
rfoot 3.08038 3.79556
rtoes 17.9709
lfemur 13.4107 -4.36976 -23.7883
ltibia 15.0617
lfoot -19.5439 7.28646
ltoes -18.253
1478
root 45.3395 17.0409 -12.7048 360.873 209.549 355.17
lowerback 7.19749 1.72689 -9.7873
upperback 6.45682 1.13953 -4.2363
thorax 2.58781 -0.0143887 0.982112
lowerneck -22.5325 7.70144 8.74857
upperneck 27.253 10.7112 -11.1539
head 14.2747 3.76254 -3.97732
rclavicle -2.62396e-014 -6.36111e-015
rhumerus 44.5808 13.4675 -26.6799
rradius 39.2976
rwrist -3.11161
rhand -6.58811 -31.7708
rfingers 7.12502
rthumb 19.2669 -60.8364
lclavicle -2.62396e-014 -6.36111e-015
lhumerus 36.0082 -9.87715 28.8272
lradius 39.3184
lwrist 5.16976
lhand -17.6949 -26.3019
lfingers 7.12502
lthumb 8.56475 3.50444
rfemur -11.7845 -1.45411 3.56979
rtibia 9.50233
rfoot 0.745762 3.07042
rtoes 14.7474
lfemur 13.8217 -3.70656 -23.4541
ltibia 16.0152
lfoot -20.5209 5.22913
ltoes -16.9107
1479
root 45.3198 16.9963 -12.8703 360.65 210.455 354.888
lowerback 7.24185 1.69278 -9.87261
upperback 6.43581 1.08536 -4.27797
thorax 2.54638 -0.0403326 0.987941
lowerneck -22.829 7.83459 9.25864
upperneck 27.6312 10.8484 -11.5514
head 14.5922 3.79594 -4.2156
rclavicle 3.33958e-014 2.22639e-014
rhumerus 44.5921 13.6802 -26.4757
rradius 39.6864
rwrist -3.54928
rhand -6.50712 -31.8716
rfingers 7.12502
rthumb 19.3448 -60.9294
lclavicle 3.33958e-014 2.22639e-014
lhumerus 35.9482 -10.5707 27.6279
lradius 39.4679
lwrist 6.19937
lhand -17.8275 -26.3147
lfingers 7.12502
lthumb 8.43684 3.49675
rfemur -11.3613 -1.11114 3.41002
rtibia 11.0576
rfoot -1.84109 2.25179
rtoes 12.0542
lfemur 14.7022 -4.69692 -23.8359
ltibia 16.2809
lfoot -21.0754 5.41604
ltoes -17.7032
